<svg width="32" height="32" viewBox="0 0 32 32" fill="none" xmlns="http://www.w3.org/2000/svg">
<path d="M2 6L5.69231 9.63861V27H2V6Z" fill="black"/>
<path d="M4.82951 14.5292L4.61539 8.59901L19.0256 22.8416L16.1112 25.7559L4.82951 14.5292Z" fill="black"/>
<path d="M29.8462 6.05198V12.0297L16.8403 24.9472L14.0187 21.9404L29.8462 6.05198Z" fill="black"/>
<path d="M26.2051 21.646L30 17.8515V23.1015L26.2051 27V21.646Z" fill="url(#paint0_linear_17_114)"/>
<path d="M2 6L5.69231 9.63861V27H2V6Z" fill="black"/>
<path d="M4.82951 14.5292L4.61539 8.59901L19.0256 22.8416L16.1112 25.7559L4.82951 14.5292Z" fill="black"/>
<path d="M29.8462 6.05198V12.0297L16.8403 24.9472L14.0187 21.9404L29.8462 6.05198Z" fill="black"/>
<path d="M26.2051 21.646L30 17.8515V23.1015L26.2051 27V21.646Z" fill="url(#paint1_linear_17_114)"/>
<defs>
<linearGradient id="paint0_linear_17_114" x1="16" y1="6" x2="16" y2="27" gradientUnits="userSpaceOnUse">
<stop stop-color="#2DA1FF"/>
<stop offset="1" stop-color="#0C204D"/>
</linearGradient>
<linearGradient id="paint1_linear_17_114" x1="16" y1="6" x2="16" y2="27" gradientUnits="userSpaceOnUse">
<stop stop-color="#2DA1FF"/>
<stop offset="1" stop-color="#0C204D"/>
</linearGradient>
</defs>
</svg>
