<svg width="24" height="24" viewBox="0 0 24 24" fill="none" xmlns="http://www.w3.org/2000/svg">
<path d="M7 22C6.71667 22 6.47917 21.9042 6.2875 21.7125C6.09583 21.5208 6 21.2833 6 21V17.7C5.05 16.8333 4.3125 15.8208 3.7875 14.6625C3.2625 13.5042 3 12.2833 3 11C3 8.5 3.875 6.375 5.625 4.625C7.375 2.875 9.5 2 12 2C14.0833 2 15.9292 2.6125 17.5375 3.8375C19.1458 5.0625 20.1917 6.65833 20.675 8.625L21.975 13.75C22.0583 14.0667 22 14.3542 21.8 14.6125C21.6 14.8708 21.3333 15 21 15H19V18C19 18.55 18.8042 19.0208 18.4125 19.4125C18.0208 19.8042 17.55 20 17 20H15V21C15 21.2833 14.9042 21.5208 14.7125 21.7125C14.5208 21.9042 14.2833 22 14 22H7ZM12 16C12.2833 16 12.5208 15.9042 12.7125 15.7125C12.9042 15.5208 13 15.2833 13 15C13 14.7167 12.9042 14.4792 12.7125 14.2875C12.5208 14.0958 12.2833 14 12 14C11.7167 14 11.4792 14.0958 11.2875 14.2875C11.0958 14.4792 11 14.7167 11 15C11 15.2833 11.0958 15.5208 11.2875 15.7125C11.4792 15.9042 11.7167 16 12 16ZM12.025 12.8C12.2083 12.8 12.3792 12.7375 12.5375 12.6125C12.6958 12.4875 12.8 12.3167 12.85 12.1C12.9 11.9 12.9792 11.7042 13.0875 11.5125C13.1958 11.3208 13.3667 11.1 13.6 10.85C14.1333 10.2667 14.4833 9.825 14.65 9.525C14.8167 9.225 14.9 8.88333 14.9 8.5C14.9 7.8 14.6292 7.20833 14.0875 6.725C13.5458 6.24167 12.875 6 12.075 6C11.5417 6 11.0375 6.12917 10.5625 6.3875C10.0875 6.64583 9.70833 7 9.425 7.45C9.325 7.61667 9.32083 7.79167 9.4125 7.975C9.50417 8.15833 9.64167 8.29167 9.825 8.375C10.0083 8.45833 10.1875 8.47083 10.3625 8.4125C10.5375 8.35417 10.6917 8.23333 10.825 8.05C10.9917 7.85 11.1833 7.69583 11.4 7.5875C11.6167 7.47917 11.8417 7.425 12.075 7.425C12.4417 7.425 12.7458 7.525 12.9875 7.725C13.2292 7.925 13.35 8.18333 13.35 8.5C13.35 8.76667 13.2792 9.02083 13.1375 9.2625C12.9958 9.50417 12.7167 9.84167 12.3 10.275C11.9833 10.6083 11.7542 10.9042 11.6125 11.1625C11.4708 11.4208 11.375 11.7167 11.325 12.05C11.2917 12.25 11.3458 12.425 11.4875 12.575C11.6292 12.725 11.8083 12.8 12.025 12.8Z" fill="url(#paint0_linear_14_118)"/>
<defs>
<linearGradient id="paint0_linear_14_118" x1="12.5059" y1="2" x2="12.5059" y2="22" gradientUnits="userSpaceOnUse">
<stop stop-color="#7A93E5"/>
<stop offset="1" stop-color="#143172"/>
</linearGradient>
</defs>
</svg>
