<svg width="296" height="61" viewBox="0 0 296 61" fill="none" xmlns="http://www.w3.org/2000/svg">
<path d="M0 0L10.8132 10.5693V61H0V0Z" fill="black"/>
<path d="M8.28641 24.7754L7.65935 7.54952L49.8607 48.9208L41.3257 57.3863L8.28641 24.7754Z" fill="black"/>
<path d="M81.5495 0.15099V17.5149L43.4609 55.037L35.1977 46.3032L81.5495 0.15099Z" fill="black"/>
<path d="M70.8865 45.448L82 34.4257V49.6757L70.8865 61V45.448Z" fill="url(#paint0_linear_20_3)"/>
<path d="M0 0L10.8132 10.5693V61H0V0Z" fill="black"/>
<path d="M8.28641 24.7754L7.65935 7.54952L49.8607 48.9208L41.3257 57.3863L8.28641 24.7754Z" fill="black"/>
<path d="M81.5495 0.15099V17.5149L43.4609 55.037L35.1977 46.3032L81.5495 0.15099Z" fill="black"/>
<path d="M70.8865 45.448L82 34.4257V49.6757L70.8865 61V45.448Z" fill="url(#paint1_linear_20_3)"/>
<path d="M106 33.2029H110.178V57.0302H106V33.2029Z" fill="black"/>
<path d="M126.733 33.2029H130.91V57.0302H126.733V33.2029Z" fill="black"/>
<path d="M179.029 33.2029H183.207V57.0302H179.029V33.2029Z" fill="black"/>
<path d="M183.98 45.7813L187.12 42.7957L200.226 57.0302H194.656L183.98 45.7813Z" fill="black"/>
<path d="M193.573 33.1749L199.653 33.1749L183.361 49.4488V42.9504L193.573 33.1749Z" fill="url(#paint2_linear_20_3)"/>
<path d="M106.942 35.5284L110.178 33.1394L118.687 44.9618V51.1507L106.942 35.5284Z" fill="black"/>
<path d="M130.127 35.5919L126.89 33.2029L118.381 45.0253V51.2143L130.127 35.5919Z" fill="black"/>
<path d="M153.655 33.2029L158.142 33.2029L148.549 56.8756H144.062L153.655 33.2029Z" fill="black"/>
<path d="M153.655 33.2029L158.142 33.2029L148.549 56.8756H144.062L153.655 33.2029Z" fill="black"/>
<path d="M158.27 33.2348L153.783 33.2348L163.376 56.9074H167.862L158.27 33.2348Z" fill="black"/>
<path d="M158.27 33.2348L153.783 33.2348L163.376 56.9074H167.862L158.27 33.2348Z" fill="black"/>
<path d="M263.109 47.2361C263.04 52.4648 259.061 56.8106 253.858 57.3396C247.914 56.8151 243.367 51.8164 243.407 45.8494L243.492 33.2029H247.515V48.1775C247.515 51.3362 250.254 53.7982 253.395 53.4626C256.535 53.798 259.273 51.3361 259.273 48.1775V33.2029H263.297L263.109 47.2361Z" fill="black"/>
<path fill-rule="evenodd" clip-rule="evenodd" d="M290.146 33.2322C293.049 33.4887 295.104 36.0185 295.691 39.2439C295.465 41.9467 294.208 43.9901 292.322 44.9041C294.336 45.8768 295.81 48.0022 296 50.3767C296 50.573 295.994 50.7663 295.986 50.9558C295.991 50.9692 295.996 50.9824 296 50.9958C295.994 51.0122 295.988 51.0284 295.983 51.0447C295.812 54.6239 294.244 56.944 291.36 57.0251L291.359 57.0378L278.052 57.0369V33.2029H290.12L290.146 33.2322ZM282.074 53.1697H290.447C290.96 52.5104 291.45 51.8127 291.744 51.115C291.766 51.0607 291.789 51.0065 291.81 50.9519C291.882 50.7595 291.94 50.5678 291.977 50.3767C291.599 48.9939 290.551 47.789 289.697 46.8259H282.074V53.1697ZM282.074 42.9578H289.168C290.059 42.1265 290.992 41.1265 291.203 40.0173C290.922 38.986 290.313 37.9835 289.71 37.0779H282.074V42.9578Z" fill="black"/>
<path d="M106 33.2029H110.178V57.0302H106V33.2029Z" fill="black"/>
<path d="M126.733 33.2029H130.91V57.0302H126.733V33.2029Z" fill="black"/>
<path d="M179.029 33.2029H183.207V57.0302H179.029V33.2029Z" fill="black"/>
<path d="M183.98 45.7813L187.12 42.7957L200.226 57.0302H194.656L183.98 45.7813Z" fill="black"/>
<path d="M193.573 33.1749L199.653 33.1749L183.361 49.4488V42.9504L193.573 33.1749Z" fill="url(#paint3_linear_20_3)"/>
<path d="M106.942 35.5284L110.178 33.1394L118.687 44.9618V51.1507L106.942 35.5284Z" fill="black"/>
<path d="M153.655 33.2029L158.142 33.2029L148.549 56.8756H144.062L153.655 33.2029Z" fill="black"/>
<path d="M153.655 33.2029L158.142 33.2029L148.549 56.8756H144.062L153.655 33.2029Z" fill="black"/>
<path d="M158.27 33.2348L153.783 33.2348L163.376 56.9074H167.862L158.27 33.2348Z" fill="black"/>
<path d="M158.27 33.2348L153.783 33.2348L163.376 56.9074H167.862L158.27 33.2348Z" fill="black"/>
<path d="M263.109 47.2361C263.04 52.4648 259.061 56.8106 253.858 57.3396C247.914 56.8151 243.367 51.8164 243.407 45.8494L243.492 33.2029H247.515V48.1775C247.515 51.3362 250.254 53.7982 253.395 53.4626C256.535 53.798 259.273 51.3361 259.273 48.1775V33.2029H263.297L263.109 47.2361Z" fill="black"/>
<path fill-rule="evenodd" clip-rule="evenodd" d="M290.146 33.2322C293.049 33.4887 295.104 36.0185 295.691 39.2439C295.465 41.9467 294.208 43.9901 292.322 44.9041C294.336 45.8768 295.81 48.0022 296 50.3767C296 50.573 295.994 50.7663 295.986 50.9558C295.991 50.9692 295.996 50.9824 296 50.9958C295.994 51.0122 295.988 51.0284 295.983 51.0447C295.812 54.6239 294.244 56.944 291.36 57.0251L291.359 57.0378L278.052 57.0369V33.2029H290.12L290.146 33.2322ZM282.074 53.1697H290.447C290.96 52.5104 291.45 51.8127 291.744 51.115C291.766 51.0607 291.789 51.0065 291.81 50.9519C291.882 50.7595 291.94 50.5678 291.977 50.3767C291.599 48.9939 290.551 47.789 289.697 46.8259H282.074V53.1697ZM282.074 42.9578H289.168C290.059 42.1265 290.992 41.1265 291.203 40.0173C290.922 38.986 290.313 37.9835 289.71 37.0779H282.074V42.9578Z" fill="black"/>
<path d="M230.397 36.916H222.352V57.0303H218.329V36.916H210.593V33.2031H230.397V36.916Z" fill="black"/>
<defs>
<linearGradient id="paint0_linear_20_3" x1="148" y1="0" x2="148" y2="61" gradientUnits="userSpaceOnUse">
<stop stop-color="#2DA1FF"/>
<stop offset="1" stop-color="#0C204D"/>
</linearGradient>
<linearGradient id="paint1_linear_20_3" x1="148" y1="0" x2="148" y2="61" gradientUnits="userSpaceOnUse">
<stop stop-color="#2DA1FF"/>
<stop offset="1" stop-color="#0C204D"/>
</linearGradient>
<linearGradient id="paint2_linear_20_3" x1="148" y1="0" x2="148" y2="61" gradientUnits="userSpaceOnUse">
<stop stop-color="#2DA1FF"/>
<stop offset="1" stop-color="#0C204D"/>
</linearGradient>
<linearGradient id="paint3_linear_20_3" x1="148" y1="0" x2="148" y2="61" gradientUnits="userSpaceOnUse">
<stop stop-color="#2DA1FF"/>
<stop offset="1" stop-color="#0C204D"/>
</linearGradient>
</defs>
</svg>
